<?xml version="1.0" encoding="UTF-8" standalone="no"?>
<!DOCTYPE svg PUBLIC "-//W3C//DTD SVG 1.1//EN" "http://www.w3.org/Graphics/SVG/1.1/DTD/svg11.dtd">
<svg width="100%" height="100%" viewBox="0 0 1693 283" version="1.1" xmlns="http://www.w3.org/2000/svg" xmlns:xlink="http://www.w3.org/1999/xlink" xml:space="preserve" xmlns:serif="http://www.serif.com/" style="fill-rule:evenodd;clip-rule:evenodd;stroke-linejoin:round;stroke-miterlimit:2;">
    <g transform="matrix(1,0,0,1,-61.4637,-59.0958)">
        <g transform="matrix(4.16667,0,0,4.16667,0,0)">
            <g transform="matrix(1,0,0,1,115.02,48.2102)">
                <path d="M0,-0.154C0.077,3.844 -0.354,7.127 -3.051,10.258C-5.755,13.393 -9.868,15.196 -13.974,15.189C-22.284,15.194 -29.174,8.304 -29.169,-0.006C-29.169,-8.46 -22.285,-15.347 -13.779,-15.345C-8.616,-15.35 -4.427,-13.041 -1.296,-8.967L-3.679,-6.729C-6.146,-10.223 -9.476,-12.299 -13.826,-12.291C-20.56,-12.29 -25.883,-6.613 -25.886,0.046C-25.886,3.17 -24.625,6.146 -22.434,8.38C-20.281,10.537 -17.152,12.144 -14.057,12.139C-8.933,12.148 -3.521,8.376 -3.528,2.905L-12.293,2.9L-12.293,-0.154L0,-0.154Z" style="fill:rgb(35,31,32);fill-rule:nonzero;"/>
            </g>
        </g>
        <g transform="matrix(4.16667,0,0,4.16667,0,0)">
            <g transform="matrix(1,0,0,1,119.679,62.8976)">
                <path d="M0,-29.525L15.313,-29.525L15.313,-26.471L3.293,-26.471L3.293,-17.699L14.962,-17.701L14.958,-14.641L3.295,-14.651L3.292,-3.055L15.313,-3.054L15.313,0L0.008,-0.005L0,-29.525Z" style="fill:rgb(35,31,32);fill-rule:nonzero;"/>
            </g>
        </g>
        <g transform="matrix(4.16667,0,0,4.16667,0,0)">
            <g transform="matrix(1,0,0,1,154.496,63.4088)">
                <path d="M0,-30.548C-8.419,-30.549 -15.396,-23.697 -15.395,-15.238C-15.39,-6.736 -8.426,-0.001 -0.007,-0.005C8.411,0.001 15.388,-6.74 15.382,-15.238C15.384,-23.697 8.414,-30.546 0,-30.548M-0.007,-27.488C6.772,-27.494 12.091,-21.97 12.091,-15.272C12.095,-8.621 6.691,-3.06 -0.007,-3.06C-6.704,-3.06 -12.104,-8.617 -12.103,-15.277C-12.102,-21.97 -6.779,-27.494 -0.007,-27.488" style="fill:rgb(35,31,32);fill-rule:nonzero;"/>
            </g>
        </g>
        <g transform="matrix(4.16667,0,0,4.16667,0,0)">
            <g transform="matrix(1,0,0,1,196.86,56.4329)">
                <path d="M0,-16.597C-2.349,-19.029 -5.6,-20.523 -9.002,-20.523C-15.585,-20.514 -20.911,-14.803 -20.911,-8.301C-20.904,-1.799 -15.548,3.916 -8.922,3.916C-5.596,3.916 -2.349,2.352 0,0.002L0.004,4.075C-2.55,5.915 -5.678,6.973 -8.812,6.975C-17.152,6.973 -24.199,0.201 -24.201,-8.186C-24.201,-16.641 -17.269,-23.572 -8.808,-23.572C-5.521,-23.57 -2.625,-22.626 0.001,-20.676L0,-16.597Z" style="fill:rgb(35,31,32);fill-rule:nonzero;"/>
            </g>
        </g>
        <g transform="matrix(4.16667,0,0,4.16667,0,0)">
            <g transform="matrix(1,0,0,1,219.457,40.3455)">
                <path d="M0,14.174L3.482,22.551L7.123,22.547L-6.151,-8.382L-19.778,22.556L-16.175,22.547L-12.611,14.168L0,14.174ZM-1.291,11.113L-11.281,11.118L-6.229,-0.712L-1.291,11.113Z" style="fill:rgb(35,31,32);fill-rule:nonzero;"/>
            </g>
        </g>
        <g transform="matrix(4.16667,0,0,4.16667,0,0)">
            <g transform="matrix(1,0,0,1,252.302,56.436)">
                <path d="M0,-16.601C-2.347,-19.032 -5.597,-20.521 -9.002,-20.512C-15.585,-20.517 -20.908,-14.8 -20.908,-8.299C-20.904,-1.802 -15.542,3.917 -8.924,3.913C-5.593,3.913 -2.347,2.349 0,-0.003L0.008,4.072C-2.539,5.92 -5.674,6.968 -8.813,6.974C-17.151,6.97 -24.192,0.194 -24.196,-8.185C-24.194,-16.644 -17.263,-23.575 -8.808,-23.575C-5.517,-23.575 -2.617,-22.636 0.004,-20.675L0,-16.601Z" style="fill:rgb(35,31,32);fill-rule:nonzero;"/>
            </g>
        </g>
        <g transform="matrix(4.16667,0,0,4.16667,0,0)">
            <g transform="matrix(1,0,0,1,276.431,50.9155)">
                <path d="M0,-5.561L-0.003,-17.543L3.293,-17.543L3.293,11.982L0,11.981L0,-2.51L-15.117,-2.506L-15.122,11.982L-18.407,11.977L-18.407,-17.54L-15.122,-17.543L-15.122,-5.56L0,-5.561Z" style="fill:rgb(35,31,32);fill-rule:nonzero;"/>
            </g>
        </g>
        <g transform="matrix(4.16667,0,0,4.16667,0,0)">
            <g transform="matrix(-1,0,0,1,285.899,33.373)">
                <rect x="-3.294" y="0" width="3.294" height="29.524" style="fill:rgb(35,31,32);"/>
            </g>
        </g>
        <g transform="matrix(4.16667,0,0,4.16667,0,0)">
            <g transform="matrix(1,0,0,1,295.385,64.2321)">
                <path d="M0,-32.113L23.019,-7.995L23.019,-30.86L26.305,-30.855L26.309,0L3.287,-24.086L3.283,-1.335L-0.002,-1.335L0,-32.113Z" style="fill:rgb(35,31,32);fill-rule:nonzero;"/>
            </g>
        </g>
        <g transform="matrix(4.16667,0,0,4.16667,0,0)">
            <g transform="matrix(1,0,0,1,355.288,48.2137)">
                <path d="M0,-0.159C0.078,3.839 -0.349,7.128 -3.05,10.255C-5.754,13.392 -9.867,15.191 -13.983,15.195C-22.278,15.195 -29.173,8.301 -29.173,-0.001C-29.173,-8.459 -22.276,-15.354 -13.787,-15.345C-8.613,-15.35 -4.422,-13.041 -1.291,-8.967L-3.679,-6.732C-6.143,-10.226 -9.467,-12.295 -13.827,-12.295C-20.558,-12.295 -25.879,-6.625 -25.884,0.043C-25.882,3.174 -24.629,6.148 -22.435,8.38C-20.279,10.533 -17.148,12.144 -14.054,12.135C-8.927,12.135 -3.518,8.379 -3.521,2.897L-12.292,2.898L-12.294,-0.159L0,-0.159Z" style="fill:rgb(35,31,32);fill-rule:nonzero;"/>
            </g>
        </g>
        <g transform="matrix(4.16667,0,0,4.16667,0,0)">
            <g transform="matrix(0.000912825,-1,-1,-0.000912825,362.967,59.0228)">
                <path d="M-2.149,-2.231C-3.364,-2.233 -4.381,-1.255 -4.386,-0.042C-4.38,1.171 -3.369,2.149 -2.149,2.151C-0.98,2.152 0.003,1.175 -0.002,-0.034C0.001,-1.251 -0.976,-2.226 -2.149,-2.231" style="fill:rgb(35,31,32);fill-rule:nonzero;"/>
            </g>
        </g>
        <g transform="matrix(4.16667,0,0,4.16667,0,0)">
            <g transform="matrix(1,0,0,1,390.573,50.909)">
                <path d="M0,-5.553L-0.002,-17.536L3.288,-17.541L3.292,11.988L-0.002,11.988L-0.002,-2.504L-15.118,-2.499L-15.111,11.984L-18.404,11.988L-18.407,-17.541L-15.114,-17.54L-15.118,-5.554L0,-5.553Z" style="fill:rgb(35,31,32);fill-rule:nonzero;"/>
            </g>
        </g>
        <g transform="matrix(4.16667,0,0,4.16667,0,0)">
            <g transform="matrix(1,0,0,1,403.181,45.8186)">
                <path d="M0,5.135C0,7.331 -0.078,9.835 1.295,11.713C2.586,13.511 5.094,14.532 7.246,14.527C9.36,14.531 11.672,13.55 13.037,11.907C14.604,10.026 14.488,7.446 14.491,5.135L14.491,-12.446L17.773,-12.451L17.78,6.035C17.773,9.25 17.541,11.792 15.189,14.221C13.161,16.414 10.22,17.586 7.248,17.582C4.463,17.585 1.611,16.529 -0.392,14.574C-2.976,12.099 -3.288,9.4 -3.288,6.034L-3.288,-12.45L0,-12.446L0,5.135Z" style="fill:rgb(35,31,32);fill-rule:nonzero;"/>
            </g>
        </g>
        <g transform="matrix(4.16667,0,0,4.16667,0,0)">
            <g transform="matrix(-0.707129,0.707085,0.707085,0.707129,19.4808,59.5167)">
                <rect x="-27.57" y="-11.419" width="22.84" height="22.839" style="fill:rgb(243,109,33);"/>
            </g>
        </g>
        <g transform="matrix(4.16667,0,0,4.16667,0,0)">
            <g transform="matrix(-0.707107,0.707107,0.707107,0.707107,37.2465,41.7536)">
                <rect x="-27.57" y="-11.421" width="22.84" height="22.84" style="fill:rgb(0,153,216);"/>
            </g>
        </g>
        <g transform="matrix(4.16667,0,0,4.16667,0,0)">
            <g transform="matrix(-0.707107,0.707107,0.707107,0.707107,37.2461,77.2826)">
                <rect x="-27.57" y="-11.42" width="22.84" height="22.84" style="fill:rgb(0,102,53);"/>
            </g>
        </g>
        <g transform="matrix(4.16667,0,0,4.16667,0,0)">
            <g transform="matrix(-0.707107,0.707107,0.707107,0.707107,55.0113,59.5167)">
                <rect x="-27.569" y="-11.419" width="22.839" height="22.839" style="fill:rgb(255,214,0);"/>
            </g>
        </g>
    </g>
</svg>
