<?xml version="1.0" encoding="UTF-8" standalone="no"?>
<!DOCTYPE svg PUBLIC "-//W3C//DTD SVG 1.1//EN" "http://www.w3.org/Graphics/SVG/1.1/DTD/svg11.dtd">
<svg width="100%" height="100%" viewBox="0 0 1921 1905" version="1.1" xmlns="http://www.w3.org/2000/svg" xmlns:xlink="http://www.w3.org/1999/xlink" xml:space="preserve" xmlns:serif="http://www.serif.com/" style="fill-rule:evenodd;clip-rule:evenodd;stroke-linejoin:round;stroke-miterlimit:2;">
    <g id="Layer-1" serif:id="Layer 1" transform="matrix(4.16667,0,0,4.16667,0,0)">
        <g transform="matrix(1,0,0,1,256.26,447.305)">
            <path d="M0,-18.358C2.564,-15.891 4.359,-13.553 4.633,-9.885C4.904,-6.212 3.449,-2.489 0.862,0.091C-4.365,5.324 -13.036,5.324 -18.262,0.091C-23.582,-5.229 -23.584,-13.895 -18.23,-19.247C-14.984,-22.499 -10.896,-23.682 -6.361,-23.088L-6.452,-20.18C-10.203,-20.827 -13.605,-20.038 -16.338,-17.295C-20.575,-13.057 -20.353,-6.135 -16.163,-1.942C-14.197,0.023 -11.531,1.103 -8.746,1.13C-6.035,1.132 -3.055,0.175 -1.108,-1.776C2.121,-4.995 3.153,-10.774 -0.295,-14.213L-5.814,-8.7L-7.736,-10.622L0,-18.358Z" style="fill:rgb(35,31,32);fill-rule:nonzero;"/>
        </g>
        <g transform="matrix(1,0,0,1,249.951,425.71)">
            <path d="M0,-8.935L9.637,-18.572L11.559,-16.65L3.994,-9.085L9.514,-3.566L16.856,-10.91L18.779,-8.982L11.434,-1.648L18.729,5.651L26.295,-1.914L28.217,0.008L18.582,9.637L0,-8.935Z" style="fill:rgb(35,31,32);fill-rule:nonzero;"/>
        </g>
        <g transform="matrix(1,0,0,1,271.539,413.844)">
            <path d="M0,-19.301C-5.298,-14.004 -5.377,-5.301 -0.053,0.021C5.301,5.369 13.922,5.224 19.218,-0.076C24.518,-5.369 24.666,-14.002 19.315,-19.346C13.992,-24.67 5.298,-24.594 0,-19.301M1.922,-17.371C6.184,-21.641 13.008,-21.512 17.223,-17.297C21.41,-13.113 21.51,-6.213 17.295,-1.998C13.08,2.217 6.184,2.117 1.994,-2.074C-2.217,-6.287 -2.344,-13.113 1.922,-17.371" style="fill:rgb(35,31,32);fill-rule:nonzero;"/>
        </g>
        <g transform="matrix(1,0,0,1,302.588,395.504)">
            <path d="M0,-23.231C-3.008,-23.284 -5.994,-22.178 -8.135,-20.038C-12.271,-15.889 -12.029,-8.944 -7.938,-4.852C-3.842,-0.764 3.125,-0.538 7.295,-4.708C9.389,-6.801 10.447,-9.829 10.445,-12.786L13.013,-10.225C12.563,-7.461 11.26,-4.827 9.289,-2.852C4.039,2.394 -4.656,2.568 -9.935,-2.71C-15.256,-8.03 -15.256,-16.754 -9.932,-22.079C-7.861,-24.145 -5.445,-25.374 -2.565,-25.799L0,-23.231Z" style="fill:rgb(35,31,32);fill-rule:nonzero;"/>
        </g>
        <g transform="matrix(1,0,0,1,326.049,374.692)">
            <path d="M0,-7.399L7.463,-4.319L9.752,-6.612L-18.065,-17.721L-7.172,10.322L-4.91,8.05L-7.938,0.533L0,-7.399ZM-2.738,-8.512L-9.021,-2.223L-13.287,-12.846L-2.738,-8.512Z" style="fill:rgb(35,31,32);fill-rule:nonzero;"/>
        </g>
        <g transform="matrix(1,0,0,1,337.477,360.61)">
            <path d="M0,-23.227C-3.006,-23.28 -5.987,-22.172 -8.125,-20.024C-12.271,-15.883 -12.023,-8.936 -7.933,-4.844C-3.842,-0.758 3.132,-0.534 7.295,-4.702C9.391,-6.797 10.449,-9.825 10.445,-12.782L13.014,-10.221C12.574,-7.457 11.261,-4.823 9.291,-2.846C4.039,2.4 -4.654,2.566 -9.929,-2.704C-15.252,-8.028 -15.252,-16.752 -9.932,-22.073C-7.859,-24.145 -5.445,-25.377 -2.56,-25.793L0,-23.227Z" style="fill:rgb(35,31,32);fill-rule:nonzero;"/>
        </g>
        <g transform="matrix(1,0,0,1,356.133,338.68)">
            <path d="M0,-13.006L-7.541,-20.545L-5.467,-22.619L13.113,-4.039L11.039,-1.967L1.92,-11.086L-7.589,-1.57L1.525,7.549L-0.545,9.613L-19.12,-8.961L-17.055,-11.031L-9.514,-3.49L0,-13.006Z" style="fill:rgb(35,31,32);fill-rule:nonzero;"/>
        </g>
        <g transform="matrix(-0.707107,0.707107,0.707107,0.707107,351.743,321.892)">
            <rect x="-11.791" y="-4.884" width="2.931" height="26.274" style="fill:rgb(35,31,32);"/>
        </g>
        <g transform="matrix(1,0,0,1,359.732,309.023)">
            <path d="M0,-3.607L29.665,-2.916L15.275,-17.304L17.346,-19.369L36.766,0.045L7.121,-0.625L21.434,13.696L19.368,15.762L0,-3.607Z" style="fill:rgb(35,31,32);fill-rule:nonzero;"/>
        </g>
        <g transform="matrix(1,0,0,1,407.46,296.107)">
            <path d="M0,-18.361C2.563,-15.893 4.364,-13.554 4.633,-9.886C4.905,-6.213 3.448,-2.491 0.863,0.1C-4.359,5.323 -13.036,5.323 -18.26,0.098C-23.583,-5.224 -23.582,-13.903 -18.233,-19.241C-14.981,-22.5 -10.892,-23.684 -6.355,-23.091L-6.452,-20.182C-10.202,-20.83 -13.597,-20.039 -16.338,-17.297C-20.575,-13.06 -20.356,-6.143 -16.163,-1.945C-14.19,0.024 -11.532,1.108 -8.747,1.131C-6.036,1.131 -3.051,0.174 -1.108,-1.779C2.118,-5.006 3.157,-10.774 -0.294,-14.222L-5.813,-8.701L-7.737,-10.624L0,-18.361Z" style="fill:rgb(35,31,32);fill-rule:nonzero;"/>
        </g>
        <g transform="matrix(-0.706337,-0.707876,-0.707876,0.706337,418.643,281.203)">
            <path d="M-1.32,-3.355C-2.402,-3.356 -3.307,-2.486 -3.311,-1.405C-3.305,-0.325 -2.406,0.544 -1.32,0.546C-0.28,0.548 0.595,-0.321 0.592,-1.399C0.594,-2.481 -0.276,-3.35 -1.32,-3.355" style="fill:rgb(35,31,32);fill-rule:nonzero;"/>
        </g>
        <g transform="matrix(1,0,0,1,427.965,266.85)">
            <path d="M0,-13.006L-7.543,-20.545L-5.475,-22.619L13.109,-4.039L11.037,-1.966L1.918,-11.086L-7.592,-1.57L1.525,7.54L-0.543,9.613L-19.126,-8.967L-17.055,-11.038L-9.515,-3.492L0,-13.006Z" style="fill:rgb(35,31,32);fill-rule:nonzero;"/>
        </g>
        <g transform="matrix(1,0,0,1,439.42,233.435)">
            <path d="M0,15.999C1.383,17.381 2.91,19.005 4.955,19.323C6.901,19.642 9.119,18.707 10.471,17.35C11.805,16.02 12.643,13.948 12.468,12.056C12.271,9.886 10.572,8.335 9.119,6.879L-1.943,-4.185L0.12,-6.254L11.756,5.376C13.776,7.402 15.229,9.149 15.277,12.157C15.381,14.813 14.268,17.402 12.396,19.27C10.646,21.024 8.186,22.154 5.695,22.185C2.512,22.253 0.615,20.751 -1.502,18.633L-13.135,7.001L-11.063,4.935L0,15.999Z" style="fill:rgb(35,31,32);fill-rule:nonzero;"/>
        </g>
        <g transform="matrix(-0.707103,0.70711,0.70711,0.707103,36.6196,287.53)">
            <rect x="-171.086" y="-70.867" width="141.732" height="141.733" style="fill:rgb(241,92,34);"/>
        </g>
        <g transform="matrix(-0.707107,0.707107,0.707107,0.707107,146.861,177.287)">
            <rect x="-171.086" y="-70.866" width="141.732" height="141.732" style="fill:rgb(0,153,216);"/>
        </g>
        <g transform="matrix(-0.707103,0.70711,0.70711,0.707103,146.861,397.771)">
            <rect x="-171.086" y="-70.867" width="141.732" height="141.733" style="fill:rgb(5,106,62);"/>
        </g>
        <g transform="matrix(-0.707107,0.707107,0.707107,0.707107,257.104,287.529)">
            <rect x="-171.087" y="-70.867" width="141.732" height="141.732" style="fill:rgb(253,215,3);"/>
        </g>
    </g>
</svg>
